<svg width="97" height="97" viewBox="0 0 97 97" fill="none" xmlns="http://www.w3.org/2000/svg">
<path d="M54.2837 48.4768V63.9189C54.2837 77.227 43.5299 87.996 30.3057 87.9071C30.0312 87.9071 29.7567 87.8972 29.4823 87.8873C16.7482 87.3538 6.69043 76.5749 6.69043 63.6225V47.3604H53.1662C53.7837 47.3604 54.2739 47.8642 54.2739 48.4768H54.2837ZM37.305 79.45C38.2265 79.45 38.9127 78.5707 38.6872 77.6617L35.3836 64.1659C37.5991 62.8914 39.0891 60.4906 39.0891 57.744C39.0891 53.6637 35.815 50.3638 31.7663 50.3638C31.3252 50.3638 30.8841 50.4033 30.4626 50.4824C27.0413 51.1048 24.4436 54.1181 24.4436 57.744C24.4436 60.3424 25.7669 62.6148 27.7766 63.9387L24.8357 77.7111C24.6494 78.6102 25.3258 79.45 26.2277 79.45H37.2952H37.305Z" fill="#5BE3AA"/>
<path d="M52.4113 43.6063V47.3607H39.5303V43.6063C39.5303 42.6776 40.2753 41.9268 41.1968 41.9268H50.7448C51.6663 41.9268 52.4113 42.6776 52.4113 43.6063Z" fill="#5BE3AA"/>
<path d="M50.5193 41.9267H41.2948V35.8111C41.2948 28.747 35.6091 23.0266 28.6098 23.0266C21.6105 23.0266 15.9248 28.7569 15.9248 35.8111V41.9267H6.7002V36.2161C6.7002 24.0244 16.5129 14.1348 28.6098 14.1348C40.7066 14.1348 50.5193 24.0244 50.5193 36.2161V41.9267Z" fill="#E5FAFE"/>
<path d="M38.6873 77.6719C38.9128 78.5809 38.2266 79.4602 37.3051 79.4602H34.1387C35.0602 79.4602 35.7464 78.5809 35.521 77.6719L32.2174 64.1761C34.4328 62.9016 35.9327 60.5008 35.9327 57.7542C35.9327 54.3358 33.6192 51.4509 30.4823 50.621L30.4626 50.4926C30.8842 50.4135 31.3253 50.374 31.7664 50.374C35.8151 50.374 39.0892 53.6838 39.0892 57.7542C39.0892 60.5008 37.5894 62.9016 35.3837 64.1761L38.6873 77.6719Z" fill="#085239"/>
<path d="M35.5307 77.6715C35.7561 78.5805 35.0699 79.4598 34.1484 79.4598H26.2473C25.3454 79.4598 24.669 78.6101 24.8553 77.7209L27.7961 63.9485C25.7865 62.6345 24.4631 60.3522 24.4631 57.7538C24.4631 54.128 27.0511 51.1146 30.4821 50.4922L30.5017 50.6206C33.6387 51.4505 35.9522 54.3354 35.9522 57.7538C35.9522 60.5004 34.4523 62.9012 32.2369 64.1757L35.5405 77.6715H35.5307Z" fill="#002E22"/>
<path d="M29.4824 87.8775V87.8973H24.8653C11.7195 87.8973 1.06372 77.1579 1.06372 63.9091V48.467C1.06372 47.8446 1.56367 47.3506 2.17145 47.3506H6.6808V63.6127C6.6808 76.5652 16.7386 87.3341 29.4726 87.8775H29.4824Z" fill="#008C59"/>
<path d="M17.6992 43.6063V47.3607H4.81812V43.6063C4.81812 42.6776 5.56314 41.9268 6.48461 41.9268H16.0327C16.9542 41.9268 17.6992 42.6776 17.6992 43.6063Z" fill="#5BE3AA"/>
<path d="M6.77866 47.3604H53.176C53.7936 47.3604 54.2837 47.8642 54.2837 48.4768V63.9189C54.2837 77.227 43.5299 87.996 30.3057 87.9071C30.0312 87.9071 29.7567 87.8972 29.4823 87.8873C16.7482 87.3538 6.69043 76.5749 6.69043 63.6225V47.3604" stroke="#002140" stroke-linecap="round" stroke-linejoin="round"/>
<path d="M6.7788 47.3604H2.18122C1.56363 47.3604 1.07349 47.8642 1.07349 48.4768V63.9189C1.07349 77.1677 11.7293 87.9071 24.875 87.9071H29.4922" stroke="#002140" stroke-linecap="round" stroke-linejoin="round"/>
<path d="M4.81812 47.3607V43.6063C4.81812 42.6776 5.56314 41.9268 6.48461 41.9268H16.0327C16.9542 41.9268 17.6992 42.6776 17.6992 43.6063V47.3607" stroke="#002140" stroke-linecap="round" stroke-linejoin="round"/>
<path d="M39.5303 47.3607V43.6063C39.5303 42.6776 40.2753 41.9268 41.1968 41.9268H50.7448C51.6663 41.9268 52.4113 42.6776 52.4113 43.6063V47.3607" stroke="#002140" stroke-linecap="round" stroke-linejoin="round"/>
<path d="M6.7002 41.9267V36.2161C6.7002 24.0244 16.5129 14.1348 28.6098 14.1348C40.7066 14.1348 50.5193 24.0244 50.5193 36.2161V41.9267" stroke="#002140" stroke-linecap="round" stroke-linejoin="round"/>
<path d="M15.9248 41.9264V35.8108C15.9248 28.7468 21.6105 23.0264 28.6098 23.0264C35.6091 23.0264 41.2948 28.7567 41.2948 35.8108V41.9264" stroke="#002140" stroke-linecap="round" stroke-linejoin="round"/>
<path d="M34.1387 79.4499H37.3051C38.2265 79.4499 38.9127 78.5706 38.6873 77.6617L35.3837 64.1659C37.5991 62.8914 39.0892 60.4906 39.0892 57.744C39.0892 53.6636 35.815 50.3638 31.7664 50.3638C31.3253 50.3638 30.8841 50.4033 30.4626 50.4823C27.0414 51.1048 24.4436 54.1181 24.4436 57.744C24.4436 60.3424 25.767 62.6147 27.7766 63.9386L24.8357 77.7111C24.6495 78.6101 25.3259 79.4499 26.2277 79.4499H34.1289H34.1387Z" stroke="#002140" stroke-linecap="round" stroke-linejoin="round"/>
<path d="M34.1387 79.45C35.0601 79.45 35.7464 78.5707 35.5209 77.6617L32.2173 64.1659C34.4328 62.8914 35.9326 60.4906 35.9326 57.7441C35.9326 54.3256 33.6191 51.4407 30.4822 50.6108" stroke="#002140" stroke-linecap="round" stroke-linejoin="round"/>
<path d="M79.301 65.332C74.7916 65.332 70.743 67.308 67.959 70.4399L37.6875 58.5051C36.5013 58.0407 35.1779 58.5248 34.5407 59.582L34.5015 59.5622L34.3447 59.9772C34.3447 59.9772 34.3447 59.9969 34.3349 60.0068L33.2762 62.8028C33.2762 62.8028 33.2762 62.8225 33.2762 62.8324L30.5706 70.5782L38.5305 73.8879L40.6088 68.1379V67.96L38.3639 73.8879L45.4612 76.674L47.7061 70.7461L64.3613 77.8398C64.1946 78.7587 64.0966 79.7071 64.0966 80.6852C64.0966 89.172 70.9195 96.0483 79.3402 96.0483C87.7609 96.0483 94.5838 89.172 94.5838 80.6852C94.5838 72.1985 87.7609 65.3221 79.3402 65.3221L79.301 65.332ZM79.301 88.3717C75.0955 88.3717 71.6841 84.9335 71.6841 80.6951C71.6841 76.4567 75.0955 73.0185 79.301 73.0185C83.5064 73.0185 86.9179 76.4567 86.9179 80.6951C86.9179 84.9335 83.5064 88.3717 79.301 88.3717Z" fill="#FED607" stroke="#002140" stroke-linecap="round" stroke-linejoin="round"/>
<path d="M58.7637 1.95264H58.0971C56.7273 1.95264 55.6169 3.07174 55.6169 4.45223V12.6426C55.6169 14.0231 56.7273 15.1422 58.0971 15.1422H58.7637C60.1334 15.1422 61.2438 14.0231 61.2438 12.6426V4.45223C61.2438 3.07174 60.1334 1.95264 58.7637 1.95264Z" stroke="#4ED7DE" stroke-width="2" stroke-linecap="round" stroke-linejoin="round"/>
<path d="M55.7051 12.8999L61.0771 3.85986" stroke="#4ED7DE" stroke-width="2" stroke-linecap="round" stroke-linejoin="round"/>
<path d="M70.292 1.95264H69.6254C68.2557 1.95264 67.1453 3.07174 67.1453 4.45223V12.6426C67.1453 14.0231 68.2557 15.1422 69.6254 15.1422H70.292C71.6618 15.1422 72.7721 14.0231 72.7721 12.6426V4.45223C72.7721 3.07174 71.6618 1.95264 70.292 1.95264Z" stroke="#4ED7DE" stroke-width="2" stroke-linecap="round" stroke-linejoin="round"/>
<path d="M67.2334 12.8999L72.6054 3.85986" stroke="#4ED7DE" stroke-width="2" stroke-linecap="round" stroke-linejoin="round"/>
<path d="M58.7637 20.043H58.0971C56.7273 20.043 55.6169 21.1621 55.6169 22.5426V30.7329C55.6169 32.1134 56.7273 33.2325 58.0971 33.2325H58.7637C60.1334 33.2325 61.2438 32.1134 61.2438 30.7329V22.5426C61.2438 21.1621 60.1334 20.043 58.7637 20.043Z" stroke="#4ED7DE" stroke-width="2" stroke-linecap="round" stroke-linejoin="round"/>
<path d="M55.7051 30.9897L61.0771 21.9497" stroke="#4ED7DE" stroke-width="2" stroke-linecap="round" stroke-linejoin="round"/>
<path d="M81.8203 19.7861H81.1537C79.784 19.7861 78.6736 20.9052 78.6736 22.2857V30.4761C78.6736 31.8566 79.784 32.9757 81.1537 32.9757H81.8203C83.1901 32.9757 84.3005 31.8566 84.3005 30.4761V22.2857C84.3005 20.9052 83.1901 19.7861 81.8203 19.7861Z" stroke="#4ED7DE" stroke-width="2" stroke-linecap="round" stroke-linejoin="round"/>
<path d="M78.752 30.7328L84.124 21.7026" stroke="#4ED7DE" stroke-width="2" stroke-linecap="round" stroke-linejoin="round"/>
<path d="M93.3582 19.7861H92.6916C91.3218 19.7861 90.2114 20.9052 90.2114 22.2857V30.4761C90.2114 31.8566 91.3218 32.9757 92.6916 32.9757H93.3582C94.7279 32.9757 95.8383 31.8566 95.8383 30.4761V22.2857C95.8383 20.9052 94.7279 19.7861 93.3582 19.7861Z" stroke="#4ED7DE" stroke-width="2" stroke-linecap="round" stroke-linejoin="round"/>
<path d="M90.2998 30.7328L95.6718 21.7026" stroke="#4ED7DE" stroke-width="2" stroke-linecap="round" stroke-linejoin="round"/>
<path d="M70.2527 37.4214H69.5861C68.2164 37.4214 67.106 38.5405 67.106 39.921V48.1113C67.106 49.4918 68.2164 50.6109 69.5861 50.6109H70.2527C71.6224 50.6109 72.7328 49.4918 72.7328 48.1113V39.921C72.7328 38.5405 71.6224 37.4214 70.2527 37.4214Z" stroke="#4ED7DE" stroke-width="2" stroke-linecap="round" stroke-linejoin="round"/>
<path d="M67.1843 48.368L72.5661 39.3379" stroke="#4ED7DE" stroke-width="2" stroke-linecap="round" stroke-linejoin="round"/>
<path d="M93.4466 37.4214H92.78C91.4102 37.4214 90.2998 38.5405 90.2998 39.921V48.1113C90.2998 49.4918 91.4102 50.6109 92.78 50.6109H93.4466C94.8163 50.6109 95.9267 49.4918 95.9267 48.1113V39.921C95.9267 38.5405 94.8163 37.4214 93.4466 37.4214Z" stroke="#4ED7DE" stroke-width="2" stroke-linecap="round" stroke-linejoin="round"/>
<path d="M90.3879 48.368L95.7599 39.3379" stroke="#4ED7DE" stroke-width="2" stroke-linecap="round" stroke-linejoin="round"/>
<path d="M79.9773 4.63994L81.8987 1.95264V14.9742" stroke="#4ED7DE" stroke-width="2" stroke-linecap="round" stroke-linejoin="round"/>
<path d="M79.5068 14.9746H84.3005" stroke="#4ED7DE" stroke-width="2" stroke-linecap="round" stroke-linejoin="round"/>
<path d="M91.6133 4.63994L93.5347 1.95264V14.9742" stroke="#4ED7DE" stroke-width="2" stroke-linecap="round" stroke-linejoin="round"/>
<path d="M91.1428 14.9746H95.9267" stroke="#4ED7DE" stroke-width="2" stroke-linecap="round" stroke-linejoin="round"/>
<path d="M68.3706 22.5623L70.292 19.875V32.8966" stroke="#4ED7DE" stroke-width="2" stroke-linecap="round" stroke-linejoin="round"/>
<path d="M67.9001 32.8965H72.684" stroke="#4ED7DE" stroke-width="2" stroke-linecap="round" stroke-linejoin="round"/>
<path d="M79.8989 39.8616L81.8203 37.1743V50.1959" stroke="#4ED7DE" stroke-width="2" stroke-linecap="round" stroke-linejoin="round"/>
<path d="M79.4282 50.1958H84.2121" stroke="#4ED7DE" stroke-width="2" stroke-linecap="round" stroke-linejoin="round"/>
</svg>
